<mxfile host="app.diagrams.net" modified="2023-04-17T12:48:06.329Z" agent="Mozilla/5.0 (X11; Ubuntu; Linux x86_64; rv:109.0) Gecko/20100101 Firefox/112.0" version="21.1.6" etag="xIAP4g1dVTtR2SG45R3B" type="github">
  <diagram name="Page-1" id="7RQIGV4b_CgYJjkA2Kky">
    <mxGraphModel>
      <root>
        <mxCell id="0" />
        <mxCell id="1" parent="0" />
      </root>
    </mxGraphModel>
  </diagram>
</mxfile>
